<svg width="1200" height="630" viewBox="0 0 1200 630" fill="none" xmlns="http://www.w3.org/2000/svg">
  <rect width="1200" height="630" fill="#020617"/>
  <g opacity=".26">
    <path d="M0 90H1200M0 180H1200M0 270H1200M0 360H1200M0 450H1200M0 540H1200" stroke="#22D3EE"/>
    <path d="M120 0V630M240 0V630M360 0V630M480 0V630M600 0V630M720 0V630M840 0V630M960 0V630M1080 0V630" stroke="#22D3EE"/>
  </g>
  <circle cx="930" cy="130" r="240" fill="#7C3AED" opacity=".22"/>
  <circle cx="260" cy="520" r="260" fill="#0891B2" opacity=".24"/>
  <text x="90" y="250" fill="#E0F2FE" font-family="Inter, Arial, sans-serif" font-size="72" font-weight="800">Luckychowdary Uppalapati</text>
  <text x="94" y="330" fill="#67E8F9" font-family="Inter, Arial, sans-serif" font-size="34" font-weight="600">Cybersecurity • SOC Operations • AWS Security Automation</text>
  <text x="96" y="420" fill="#CBD5E1" font-family="Inter, Arial, sans-serif" font-size="26">AI-assisted incident triage, cloud monitoring, and detection engineering.</text>
  <rect x="90" y="470" width="278" height="58" rx="29" fill="#22D3EE"/>
  <text x="125" y="508" fill="#020617" font-family="Inter, Arial, sans-serif" font-size="22" font-weight="700">Portfolio Console</text>
</svg>
